<svg width="1154" height="676" viewBox="0 0 1154 676" fill="none" xmlns="http://www.w3.org/2000/svg">
<rect x="577" y="1" width="576" height="64" fill="white" stroke="black"/>
<rect x="1" y="1" width="576" height="64" fill="white" stroke="black"/>
<rect x="1" y="65" width="576" height="610" fill="#F4EDDA" stroke="black"/>
<rect x="577" y="65" width="576" height="610" fill="#F4EDDA" stroke="black"/>
<path d="M395.4 169V155H397.06V161.02H403.32V155H404.96V169H403.32V162.5H397.06V169H395.4ZM408.679 169V158.4H410.319V169H408.679ZM408.559 156.26V154.4H410.439V156.26H408.559ZM413.933 170.92L415.313 170.22C415.553 170.873 415.879 171.387 416.293 171.76C416.719 172.147 417.319 172.34 418.093 172.34C418.946 172.34 419.606 172.087 420.073 171.58C420.539 171.087 420.773 170.393 420.773 169.5V168.08H420.733C420.039 168.893 419.059 169.3 417.793 169.3C416.393 169.3 415.266 168.793 414.413 167.78C413.559 166.767 413.133 165.407 413.133 163.7C413.133 162.007 413.573 160.653 414.453 159.64C415.346 158.613 416.453 158.1 417.773 158.1C419.053 158.1 420.046 158.54 420.753 159.42H420.793V158.4H422.393V169.16C422.393 170.667 422.013 171.813 421.253 172.6C420.506 173.4 419.466 173.8 418.133 173.8C417.053 173.8 416.153 173.533 415.433 173C414.726 172.48 414.226 171.787 413.933 170.92ZM420.773 165.52V162.16C420.773 161.507 420.519 160.913 420.013 160.38C419.519 159.847 418.859 159.58 418.033 159.58C416.993 159.58 416.186 159.947 415.613 160.68C415.053 161.4 414.773 162.407 414.773 163.7C414.773 165.007 415.053 166.02 415.613 166.74C416.173 167.46 416.979 167.82 418.033 167.82C418.819 167.82 419.473 167.593 419.993 167.14C420.513 166.673 420.773 166.133 420.773 165.52ZM425.688 169V154.4H427.328V159.46H427.368C427.662 159.06 428.088 158.733 428.648 158.48C429.222 158.227 429.828 158.1 430.468 158.1C431.602 158.1 432.515 158.447 433.208 159.14C433.915 159.82 434.268 160.8 434.268 162.08V169H432.628V162.52C432.628 160.573 431.808 159.6 430.168 159.6C429.302 159.6 428.608 159.853 428.088 160.36C427.582 160.867 427.328 161.527 427.328 162.34V169H425.688Z" fill="black"/>
<path d="M400.54 299.28C399.34 299.28 398.34 299.753 397.54 300.7C396.753 301.647 396.36 303.04 396.36 304.88C396.36 306.8 396.747 308.26 397.52 309.26C398.293 310.247 399.3 310.74 400.54 310.74C402.647 310.74 403.833 309.427 404.1 306.8L405.84 307.02C405.707 308.66 405.18 309.953 404.26 310.9C403.34 311.833 402.1 312.3 400.54 312.3C399.753 312.3 399.013 312.16 398.32 311.88C397.64 311.6 397.013 311.18 396.44 310.62C395.88 310.047 395.433 309.273 395.1 308.3C394.767 307.313 394.6 306.173 394.6 304.88C394.6 302.6 395.18 300.833 396.34 299.58C397.5 298.327 398.9 297.7 400.54 297.7C402.007 297.7 403.2 298.147 404.12 299.04C405.04 299.933 405.6 301.113 405.8 302.58L404.12 302.88C403.72 300.48 402.527 299.28 400.54 299.28ZM408.54 312V297.4H410.2V312H408.54ZM417.718 310.82C418.612 310.82 419.352 310.46 419.938 309.74C420.538 309.007 420.838 307.993 420.838 306.7C420.838 305.407 420.545 304.4 419.958 303.68C419.372 302.947 418.625 302.58 417.718 302.58C416.785 302.58 416.018 302.94 415.418 303.66C414.818 304.367 414.518 305.38 414.518 306.7C414.518 308.02 414.818 309.04 415.418 309.76C416.018 310.467 416.785 310.82 417.718 310.82ZM417.718 312.3C416.318 312.3 415.165 311.807 414.258 310.82C413.352 309.833 412.898 308.46 412.898 306.7C412.898 304.967 413.365 303.6 414.298 302.6C415.232 301.6 416.372 301.1 417.718 301.1C419.052 301.1 420.172 301.6 421.078 302.6C421.998 303.6 422.458 304.967 422.458 306.7C422.458 308.46 422.012 309.833 421.118 310.82C420.225 311.807 419.092 312.3 417.718 312.3ZM424.361 308.4L425.901 308.1C426.101 309.953 427.081 310.88 428.841 310.88C429.681 310.88 430.308 310.727 430.721 310.42C431.148 310.113 431.361 309.707 431.361 309.2C431.361 308.667 431.161 308.267 430.761 308C430.374 307.733 429.554 307.427 428.301 307.08C426.994 306.72 426.074 306.313 425.541 305.86C425.008 305.407 424.741 304.793 424.741 304.02C424.741 303.233 425.068 302.553 425.721 301.98C426.374 301.393 427.274 301.1 428.421 301.1C429.581 301.1 430.501 301.38 431.181 301.94C431.861 302.487 432.314 303.22 432.541 304.14L431.121 304.52C430.708 303.173 429.808 302.5 428.421 302.5C427.728 302.5 427.194 302.647 426.821 302.94C426.448 303.233 426.261 303.58 426.261 303.98C426.261 304.42 426.441 304.747 426.801 304.96C427.161 305.173 427.988 305.467 429.281 305.84C430.654 306.227 431.594 306.673 432.101 307.18C432.621 307.673 432.888 308.347 432.901 309.2C432.901 310.04 432.561 310.767 431.881 311.38C431.214 311.993 430.208 312.3 428.861 312.3C427.461 312.3 426.388 311.94 425.641 311.22C424.908 310.487 424.481 309.547 424.361 308.4ZM442.833 308.74L444.153 309.6C443.753 310.373 443.18 311.02 442.433 311.54C441.7 312.047 440.793 312.3 439.713 312.3C438.273 312.3 437.093 311.793 436.173 310.78C435.253 309.753 434.793 308.393 434.793 306.7C434.793 305.007 435.24 303.653 436.133 302.64C437.04 301.613 438.206 301.1 439.633 301.1C441.046 301.1 442.193 301.6 443.073 302.6C443.953 303.6 444.393 304.967 444.393 306.7V307.18H436.433C436.446 308.193 436.726 309.053 437.273 309.76C437.833 310.467 438.633 310.82 439.673 310.82C440.073 310.82 440.446 310.767 440.793 310.66C441.14 310.54 441.406 310.427 441.593 310.32C441.78 310.2 441.973 310.013 442.173 309.76C442.386 309.493 442.513 309.32 442.553 309.24C442.606 309.16 442.7 308.993 442.833 308.74ZM436.473 305.88H442.773C442.746 304.987 442.48 304.213 441.973 303.56C441.466 302.907 440.686 302.58 439.633 302.58C438.606 302.58 437.826 302.933 437.293 303.64C436.76 304.333 436.486 305.08 436.473 305.88Z" fill="black"/>
<path d="M395.4 378V364H400.78C402.02 364 403.007 364.34 403.74 365.02C404.487 365.7 404.86 366.567 404.86 367.62C404.86 368.98 404.28 369.913 403.12 370.42V370.48C403.747 370.68 404.28 371.073 404.72 371.66C405.16 372.247 405.38 372.98 405.38 373.86C405.38 375.167 404.973 376.187 404.16 376.92C403.36 377.64 402.12 378 400.44 378H395.4ZM397.06 369.92H400.48C402.307 369.92 403.22 369.187 403.22 367.72C403.22 367.013 402.973 366.473 402.48 366.1C402 365.713 401.327 365.52 400.46 365.52H397.06V369.92ZM397.06 376.48H400.22C401.393 376.48 402.273 376.273 402.86 375.86C403.447 375.447 403.74 374.78 403.74 373.86C403.74 372.967 403.46 372.333 402.9 371.96C402.34 371.587 401.46 371.4 400.26 371.4H397.06V376.48ZM412.308 376.82C413.202 376.82 413.942 376.46 414.528 375.74C415.128 375.007 415.428 373.993 415.428 372.7C415.428 371.407 415.135 370.4 414.548 369.68C413.962 368.947 413.215 368.58 412.308 368.58C411.375 368.58 410.608 368.94 410.008 369.66C409.408 370.367 409.108 371.38 409.108 372.7C409.108 374.02 409.408 375.04 410.008 375.76C410.608 376.467 411.375 376.82 412.308 376.82ZM412.308 378.3C410.908 378.3 409.755 377.807 408.848 376.82C407.942 375.833 407.488 374.46 407.488 372.7C407.488 370.967 407.955 369.6 408.888 368.6C409.822 367.6 410.962 367.1 412.308 367.1C413.642 367.1 414.762 367.6 415.668 368.6C416.588 369.6 417.048 370.967 417.048 372.7C417.048 374.46 416.602 375.833 415.708 376.82C414.815 377.807 413.682 378.3 412.308 378.3ZM426.631 374.48V371.2C426.631 370.533 426.384 369.933 425.891 369.4C425.397 368.853 424.737 368.58 423.911 368.58C422.857 368.58 422.057 368.94 421.511 369.66C420.964 370.38 420.691 371.393 420.691 372.7C420.691 374.007 420.964 375.02 421.511 375.74C422.057 376.46 422.857 376.82 423.911 376.82C424.684 376.82 425.331 376.587 425.851 376.12C426.371 375.653 426.631 375.107 426.631 374.48ZM426.791 378V376.98H426.751C426.471 377.313 426.057 377.62 425.511 377.9C424.977 378.167 424.357 378.3 423.651 378.3C422.251 378.3 421.131 377.793 420.291 376.78C419.464 375.767 419.051 374.407 419.051 372.7C419.051 371.007 419.484 369.653 420.351 368.64C421.231 367.613 422.331 367.1 423.651 367.1C424.864 367.1 425.844 367.54 426.591 368.42H426.631V363.4H428.271V378H426.791ZM432.225 382.5L434.345 376.88L430.365 367.4H432.085L435.085 374.72H435.125L437.825 367.4H439.505L433.805 382.5H432.225Z" fill="black"/>
<path d="M400.54 439.74C401.753 439.74 402.74 439.253 403.5 438.28C404.26 437.307 404.64 435.867 404.64 433.96C404.64 432.12 404.247 430.713 403.46 429.74C402.687 428.767 401.713 428.28 400.54 428.28C399.34 428.28 398.34 428.753 397.54 429.7C396.753 430.647 396.36 432.04 396.36 433.88C396.36 435.8 396.747 437.26 397.52 438.26C398.293 439.247 399.3 439.74 400.54 439.74ZM400.54 441.3C399.753 441.3 399.013 441.16 398.32 440.88C397.64 440.6 397.013 440.18 396.44 439.62C395.88 439.047 395.433 438.273 395.1 437.3C394.767 436.313 394.6 435.173 394.6 433.88C394.6 431.6 395.18 429.833 396.34 428.58C397.5 427.327 398.9 426.7 400.54 426.7C402.14 426.7 403.513 427.34 404.66 428.62C405.82 429.9 406.4 431.68 406.4 433.96C406.4 435.253 406.233 436.387 405.9 437.36C405.58 438.333 405.14 439.1 404.58 439.66C404.02 440.207 403.4 440.62 402.72 440.9C402.04 441.167 401.313 441.3 400.54 441.3ZM410.844 434.16V437.52C410.844 438.133 411.104 438.673 411.624 439.14C412.144 439.593 412.791 439.82 413.564 439.82C414.617 439.82 415.424 439.46 415.984 438.74C416.557 438.02 416.844 437.007 416.844 435.7C416.844 434.407 416.557 433.4 415.984 432.68C415.411 431.947 414.604 431.58 413.564 431.58C412.751 431.58 412.091 431.847 411.584 432.38C411.091 432.913 410.844 433.507 410.844 434.16ZM409.204 445.5V430.4H410.764V431.42H410.804C411.071 431.087 411.471 430.787 412.004 430.52C412.537 430.24 413.151 430.1 413.844 430.1C415.164 430.1 416.264 430.613 417.144 431.64C418.024 432.653 418.464 434.007 418.464 435.7C418.464 437.407 418.037 438.767 417.184 439.78C416.331 440.793 415.217 441.3 413.844 441.3C413.191 441.3 412.591 441.16 412.044 440.88C411.497 440.6 411.111 440.3 410.884 439.98H410.844V445.5H409.204ZM428.497 437.74L429.817 438.6C429.417 439.373 428.844 440.02 428.097 440.54C427.364 441.047 426.457 441.3 425.377 441.3C423.937 441.3 422.757 440.793 421.837 439.78C420.917 438.753 420.457 437.393 420.457 435.7C420.457 434.007 420.904 432.653 421.797 431.64C422.704 430.613 423.87 430.1 425.297 430.1C426.71 430.1 427.857 430.6 428.737 431.6C429.617 432.6 430.057 433.967 430.057 435.7V436.18H422.097C422.11 437.193 422.39 438.053 422.937 438.76C423.497 439.467 424.297 439.82 425.337 439.82C425.737 439.82 426.11 439.767 426.457 439.66C426.804 439.54 427.07 439.427 427.257 439.32C427.444 439.2 427.637 439.013 427.837 438.76C428.05 438.493 428.177 438.32 428.217 438.24C428.27 438.16 428.364 437.993 428.497 437.74ZM422.137 434.88H428.437C428.41 433.987 428.144 433.213 427.637 432.56C427.13 431.907 426.35 431.58 425.297 431.58C424.27 431.58 423.49 431.933 422.957 432.64C422.424 433.333 422.15 434.08 422.137 434.88ZM432.759 441V430.4H434.359V431.42H434.399C434.692 431.033 435.112 430.72 435.659 430.48C436.205 430.227 436.779 430.1 437.379 430.1C438.525 430.1 439.445 430.453 440.139 431.16C440.845 431.867 441.199 432.827 441.199 434.04V441H439.579V434.56C439.579 432.587 438.765 431.6 437.139 431.6C436.312 431.6 435.645 431.833 435.139 432.3C434.645 432.767 434.399 433.413 434.399 434.24V441H432.759Z" fill="black"/>
<path d="M395.4 582V568H397.06V580.48H403.14V582H395.4ZM409.554 580.82C410.448 580.82 411.188 580.46 411.774 579.74C412.374 579.007 412.674 577.993 412.674 576.7C412.674 575.407 412.381 574.4 411.794 573.68C411.208 572.947 410.461 572.58 409.554 572.58C408.621 572.58 407.854 572.94 407.254 573.66C406.654 574.367 406.354 575.38 406.354 576.7C406.354 578.02 406.654 579.04 407.254 579.76C407.854 580.467 408.621 580.82 409.554 580.82ZM409.554 582.3C408.154 582.3 407.001 581.807 406.094 580.82C405.188 579.833 404.734 578.46 404.734 576.7C404.734 574.967 405.201 573.6 406.134 572.6C407.068 571.6 408.208 571.1 409.554 571.1C410.888 571.1 412.008 571.6 412.914 572.6C413.834 573.6 414.294 574.967 414.294 576.7C414.294 578.46 413.848 579.833 412.954 580.82C412.061 581.807 410.928 582.3 409.554 582.3ZM418.537 582L416.197 571.4H417.817L419.517 579.38H419.557L422.357 571.4H423.837L426.597 579.38H426.637L428.537 571.4H430.137L427.597 582H426.097L423.097 573.34H423.057L420.057 582H418.537Z" fill="black"/>
<rect x="171.5" y="164.536" width="11.36" height="413.929" fill="#250C00"/>
<rect x="148.768" y="311.589" width="56.6429" height="122" fill="white" stroke="#00C805" stroke-width="6.53571"/>
<circle cx="372.572" cy="164.536" r="6.53571" fill="#504833"/>
<path d="M372.572 164.536H198.286" stroke="#504833" stroke-width="2.17857"/>
<circle cx="372.572" cy="308.321" r="6.53571" fill="#504833"/>
<path d="M372.572 308.321L228.786 308.321" stroke="#504833" stroke-width="2.17857"/>
<circle cx="372.572" cy="373.678" r="6.53571" fill="#504833"/>
<path d="M372.572 373.679L228.786 373.679" stroke="#504833" stroke-width="2.17857"/>
<circle cx="372.572" cy="436.857" r="6.53571" fill="#504833"/>
<path d="M372.572 436.857L228.786 436.857" stroke="#504833" stroke-width="2.17857"/>
<circle cx="372.572" cy="578.464" r="6.53571" fill="#504833"/>
<path d="M372.572 578.465H198.286" stroke="#504833" stroke-width="2.17857"/>
<path d="M971.4 169V155H973.06V161.02H979.32V155H980.96V169H979.32V162.5H973.06V169H971.4ZM984.679 169V158.4H986.319V169H984.679ZM984.559 156.26V154.4H986.439V156.26H984.559ZM989.933 170.92L991.313 170.22C991.553 170.873 991.879 171.387 992.293 171.76C992.719 172.147 993.319 172.34 994.093 172.34C994.946 172.34 995.606 172.087 996.073 171.58C996.539 171.087 996.773 170.393 996.773 169.5V168.08H996.733C996.039 168.893 995.059 169.3 993.793 169.3C992.393 169.3 991.266 168.793 990.413 167.78C989.559 166.767 989.133 165.407 989.133 163.7C989.133 162.007 989.573 160.653 990.453 159.64C991.346 158.613 992.453 158.1 993.773 158.1C995.053 158.1 996.046 158.54 996.753 159.42H996.793V158.4H998.393V169.16C998.393 170.667 998.013 171.813 997.253 172.6C996.506 173.4 995.466 173.8 994.133 173.8C993.053 173.8 992.153 173.533 991.433 173C990.726 172.48 990.226 171.787 989.933 170.92ZM996.773 165.52V162.16C996.773 161.507 996.519 160.913 996.013 160.38C995.519 159.847 994.859 159.58 994.033 159.58C992.993 159.58 992.186 159.947 991.613 160.68C991.053 161.4 990.773 162.407 990.773 163.7C990.773 165.007 991.053 166.02 991.613 166.74C992.173 167.46 992.979 167.82 994.033 167.82C994.819 167.82 995.473 167.593 995.993 167.14C996.513 166.673 996.773 166.133 996.773 165.52ZM1001.69 169V154.4H1003.33V159.46H1003.37C1003.66 159.06 1004.09 158.733 1004.65 158.48C1005.22 158.227 1005.83 158.1 1006.47 158.1C1007.6 158.1 1008.51 158.447 1009.21 159.14C1009.91 159.82 1010.27 160.8 1010.27 162.08V169H1008.63V162.52C1008.63 160.573 1007.81 159.6 1006.17 159.6C1005.3 159.6 1004.61 159.853 1004.09 160.36C1003.58 160.867 1003.33 161.527 1003.33 162.34V169H1001.69Z" fill="black"/>
<path d="M976.54 310.74C977.753 310.74 978.74 310.253 979.5 309.28C980.26 308.307 980.64 306.867 980.64 304.96C980.64 303.12 980.247 301.713 979.46 300.74C978.687 299.767 977.713 299.28 976.54 299.28C975.34 299.28 974.34 299.753 973.54 300.7C972.753 301.647 972.36 303.04 972.36 304.88C972.36 306.8 972.747 308.26 973.52 309.26C974.293 310.247 975.3 310.74 976.54 310.74ZM976.54 312.3C975.753 312.3 975.013 312.16 974.32 311.88C973.64 311.6 973.013 311.18 972.44 310.62C971.88 310.047 971.433 309.273 971.1 308.3C970.767 307.313 970.6 306.173 970.6 304.88C970.6 302.6 971.18 300.833 972.34 299.58C973.5 298.327 974.9 297.7 976.54 297.7C978.14 297.7 979.513 298.34 980.66 299.62C981.82 300.9 982.4 302.68 982.4 304.96C982.4 306.253 982.233 307.387 981.9 308.36C981.58 309.333 981.14 310.1 980.58 310.66C980.02 311.207 979.4 311.62 978.72 311.9C978.04 312.167 977.313 312.3 976.54 312.3ZM986.844 305.16V308.52C986.844 309.133 987.104 309.673 987.624 310.14C988.144 310.593 988.791 310.82 989.564 310.82C990.617 310.82 991.424 310.46 991.984 309.74C992.557 309.02 992.844 308.007 992.844 306.7C992.844 305.407 992.557 304.4 991.984 303.68C991.411 302.947 990.604 302.58 989.564 302.58C988.751 302.58 988.091 302.847 987.584 303.38C987.091 303.913 986.844 304.507 986.844 305.16ZM985.204 316.5V301.4H986.764V302.42H986.804C987.071 302.087 987.471 301.787 988.004 301.52C988.537 301.24 989.151 301.1 989.844 301.1C991.164 301.1 992.264 301.613 993.144 302.64C994.024 303.653 994.464 305.007 994.464 306.7C994.464 308.407 994.037 309.767 993.184 310.78C992.331 311.793 991.217 312.3 989.844 312.3C989.191 312.3 988.591 312.16 988.044 311.88C987.497 311.6 987.111 311.3 986.884 310.98H986.844V316.5H985.204ZM1004.5 308.74L1005.82 309.6C1005.42 310.373 1004.84 311.02 1004.1 311.54C1003.36 312.047 1002.46 312.3 1001.38 312.3C999.937 312.3 998.757 311.793 997.837 310.78C996.917 309.753 996.457 308.393 996.457 306.7C996.457 305.007 996.904 303.653 997.797 302.64C998.704 301.613 999.87 301.1 1001.3 301.1C1002.71 301.1 1003.86 301.6 1004.74 302.6C1005.62 303.6 1006.06 304.967 1006.06 306.7V307.18H998.097C998.11 308.193 998.39 309.053 998.937 309.76C999.497 310.467 1000.3 310.82 1001.34 310.82C1001.74 310.82 1002.11 310.767 1002.46 310.66C1002.8 310.54 1003.07 310.427 1003.26 310.32C1003.44 310.2 1003.64 310.013 1003.84 309.76C1004.05 309.493 1004.18 309.32 1004.22 309.24C1004.27 309.16 1004.36 308.993 1004.5 308.74ZM998.137 305.88H1004.44C1004.41 304.987 1004.14 304.213 1003.64 303.56C1003.13 302.907 1002.35 302.58 1001.3 302.58C1000.27 302.58 999.49 302.933 998.957 303.64C998.424 304.333 998.15 305.08 998.137 305.88ZM1008.76 312V301.4H1010.36V302.42H1010.4C1010.69 302.033 1011.11 301.72 1011.66 301.48C1012.21 301.227 1012.78 301.1 1013.38 301.1C1014.53 301.1 1015.45 301.453 1016.14 302.16C1016.85 302.867 1017.2 303.827 1017.2 305.04V312H1015.58V305.56C1015.58 303.587 1014.77 302.6 1013.14 302.6C1012.31 302.6 1011.65 302.833 1011.14 303.3C1010.65 303.767 1010.4 304.413 1010.4 305.24V312H1008.76Z" fill="black"/>
<path d="M971.4 378V364H976.78C978.02 364 979.007 364.34 979.74 365.02C980.487 365.7 980.86 366.567 980.86 367.62C980.86 368.98 980.28 369.913 979.12 370.42V370.48C979.747 370.68 980.28 371.073 980.72 371.66C981.16 372.247 981.38 372.98 981.38 373.86C981.38 375.167 980.973 376.187 980.16 376.92C979.36 377.64 978.12 378 976.44 378H971.4ZM973.06 369.92H976.48C978.307 369.92 979.22 369.187 979.22 367.72C979.22 367.013 978.973 366.473 978.48 366.1C978 365.713 977.327 365.52 976.46 365.52H973.06V369.92ZM973.06 376.48H976.22C977.393 376.48 978.273 376.273 978.86 375.86C979.447 375.447 979.74 374.78 979.74 373.86C979.74 372.967 979.46 372.333 978.9 371.96C978.34 371.587 977.46 371.4 976.26 371.4H973.06V376.48ZM988.308 376.82C989.202 376.82 989.942 376.46 990.528 375.74C991.128 375.007 991.428 373.993 991.428 372.7C991.428 371.407 991.135 370.4 990.548 369.68C989.962 368.947 989.215 368.58 988.308 368.58C987.375 368.58 986.608 368.94 986.008 369.66C985.408 370.367 985.108 371.38 985.108 372.7C985.108 374.02 985.408 375.04 986.008 375.76C986.608 376.467 987.375 376.82 988.308 376.82ZM988.308 378.3C986.908 378.3 985.755 377.807 984.848 376.82C983.942 375.833 983.488 374.46 983.488 372.7C983.488 370.967 983.955 369.6 984.888 368.6C985.822 367.6 986.962 367.1 988.308 367.1C989.642 367.1 990.762 367.6 991.668 368.6C992.588 369.6 993.048 370.967 993.048 372.7C993.048 374.46 992.602 375.833 991.708 376.82C990.815 377.807 989.682 378.3 988.308 378.3ZM1002.63 374.48V371.2C1002.63 370.533 1002.38 369.933 1001.89 369.4C1001.4 368.853 1000.74 368.58 999.911 368.58C998.857 368.58 998.057 368.94 997.511 369.66C996.964 370.38 996.691 371.393 996.691 372.7C996.691 374.007 996.964 375.02 997.511 375.74C998.057 376.46 998.857 376.82 999.911 376.82C1000.68 376.82 1001.33 376.587 1001.85 376.12C1002.37 375.653 1002.63 375.107 1002.63 374.48ZM1002.79 378V376.98H1002.75C1002.47 377.313 1002.06 377.62 1001.51 377.9C1000.98 378.167 1000.36 378.3 999.651 378.3C998.251 378.3 997.131 377.793 996.291 376.78C995.464 375.767 995.051 374.407 995.051 372.7C995.051 371.007 995.484 369.653 996.351 368.64C997.231 367.613 998.331 367.1 999.651 367.1C1000.86 367.1 1001.84 367.54 1002.59 368.42H1002.63V363.4H1004.27V378H1002.79ZM1008.22 382.5L1010.34 376.88L1006.36 367.4H1008.08L1011.08 374.72H1011.12L1013.82 367.4H1015.5L1009.8 382.5H1008.22Z" fill="black"/>
<path d="M976.54 428.28C975.34 428.28 974.34 428.753 973.54 429.7C972.753 430.647 972.36 432.04 972.36 433.88C972.36 435.8 972.747 437.26 973.52 438.26C974.293 439.247 975.3 439.74 976.54 439.74C978.647 439.74 979.833 438.427 980.1 435.8L981.84 436.02C981.707 437.66 981.18 438.953 980.26 439.9C979.34 440.833 978.1 441.3 976.54 441.3C975.753 441.3 975.013 441.16 974.32 440.88C973.64 440.6 973.013 440.18 972.44 439.62C971.88 439.047 971.433 438.273 971.1 437.3C970.767 436.313 970.6 435.173 970.6 433.88C970.6 431.6 971.18 429.833 972.34 428.58C973.5 427.327 974.9 426.7 976.54 426.7C978.007 426.7 979.2 427.147 980.12 428.04C981.04 428.933 981.6 430.113 981.8 431.58L980.12 431.88C979.72 429.48 978.527 428.28 976.54 428.28ZM984.54 441V426.4H986.2V441H984.54ZM993.718 439.82C994.612 439.82 995.352 439.46 995.938 438.74C996.538 438.007 996.838 436.993 996.838 435.7C996.838 434.407 996.545 433.4 995.958 432.68C995.372 431.947 994.625 431.58 993.718 431.58C992.785 431.58 992.018 431.94 991.418 432.66C990.818 433.367 990.518 434.38 990.518 435.7C990.518 437.02 990.818 438.04 991.418 438.76C992.018 439.467 992.785 439.82 993.718 439.82ZM993.718 441.3C992.318 441.3 991.165 440.807 990.258 439.82C989.352 438.833 988.898 437.46 988.898 435.7C988.898 433.967 989.365 432.6 990.298 431.6C991.232 430.6 992.372 430.1 993.718 430.1C995.052 430.1 996.172 430.6 997.078 431.6C997.998 432.6 998.458 433.967 998.458 435.7C998.458 437.46 998.012 438.833 997.118 439.82C996.225 440.807 995.092 441.3 993.718 441.3ZM1000.36 437.4L1001.9 437.1C1002.1 438.953 1003.08 439.88 1004.84 439.88C1005.68 439.88 1006.31 439.727 1006.72 439.42C1007.15 439.113 1007.36 438.707 1007.36 438.2C1007.36 437.667 1007.16 437.267 1006.76 437C1006.37 436.733 1005.55 436.427 1004.3 436.08C1002.99 435.72 1002.07 435.313 1001.54 434.86C1001.01 434.407 1000.74 433.793 1000.74 433.02C1000.74 432.233 1001.07 431.553 1001.72 430.98C1002.37 430.393 1003.27 430.1 1004.42 430.1C1005.58 430.1 1006.5 430.38 1007.18 430.94C1007.86 431.487 1008.31 432.22 1008.54 433.14L1007.12 433.52C1006.71 432.173 1005.81 431.5 1004.42 431.5C1003.73 431.5 1003.19 431.647 1002.82 431.94C1002.45 432.233 1002.26 432.58 1002.26 432.98C1002.26 433.42 1002.44 433.747 1002.8 433.96C1003.16 434.173 1003.99 434.467 1005.28 434.84C1006.65 435.227 1007.59 435.673 1008.1 436.18C1008.62 436.673 1008.89 437.347 1008.9 438.2C1008.9 439.04 1008.56 439.767 1007.88 440.38C1007.21 440.993 1006.21 441.3 1004.86 441.3C1003.46 441.3 1002.39 440.94 1001.64 440.22C1000.91 439.487 1000.48 438.547 1000.36 437.4ZM1018.83 437.74L1020.15 438.6C1019.75 439.373 1019.18 440.02 1018.43 440.54C1017.7 441.047 1016.79 441.3 1015.71 441.3C1014.27 441.3 1013.09 440.793 1012.17 439.78C1011.25 438.753 1010.79 437.393 1010.79 435.7C1010.79 434.007 1011.24 432.653 1012.13 431.64C1013.04 430.613 1014.21 430.1 1015.63 430.1C1017.05 430.1 1018.19 430.6 1019.07 431.6C1019.95 432.6 1020.39 433.967 1020.39 435.7V436.18H1012.43C1012.45 437.193 1012.73 438.053 1013.27 438.76C1013.83 439.467 1014.63 439.82 1015.67 439.82C1016.07 439.82 1016.45 439.767 1016.79 439.66C1017.14 439.54 1017.41 439.427 1017.59 439.32C1017.78 439.2 1017.97 439.013 1018.17 438.76C1018.39 438.493 1018.51 438.32 1018.55 438.24C1018.61 438.16 1018.7 437.993 1018.83 437.74ZM1012.47 434.88H1018.77C1018.75 433.987 1018.48 433.213 1017.97 432.56C1017.47 431.907 1016.69 431.58 1015.63 431.58C1014.61 431.58 1013.83 431.933 1013.29 432.64C1012.76 433.333 1012.49 434.08 1012.47 434.88Z" fill="black"/>
<path d="M971.4 582V568H973.06V580.48H979.14V582H971.4ZM985.554 580.82C986.448 580.82 987.188 580.46 987.774 579.74C988.374 579.007 988.674 577.993 988.674 576.7C988.674 575.407 988.381 574.4 987.794 573.68C987.208 572.947 986.461 572.58 985.554 572.58C984.621 572.58 983.854 572.94 983.254 573.66C982.654 574.367 982.354 575.38 982.354 576.7C982.354 578.02 982.654 579.04 983.254 579.76C983.854 580.467 984.621 580.82 985.554 580.82ZM985.554 582.3C984.154 582.3 983.001 581.807 982.094 580.82C981.188 579.833 980.734 578.46 980.734 576.7C980.734 574.967 981.201 573.6 982.134 572.6C983.068 571.6 984.208 571.1 985.554 571.1C986.888 571.1 988.008 571.6 988.914 572.6C989.834 573.6 990.294 574.967 990.294 576.7C990.294 578.46 989.848 579.833 988.954 580.82C988.061 581.807 986.928 582.3 985.554 582.3ZM994.537 582L992.197 571.4H993.817L995.517 579.38H995.557L998.357 571.4H999.837L1002.6 579.38H1002.64L1004.54 571.4H1006.14L1003.6 582H1002.1L999.097 573.34H999.057L996.057 582H994.537Z" fill="black"/>
<rect x="747.5" y="164.536" width="11.36" height="413.929" fill="#250C00"/>
<rect x="721.679" y="308.321" width="63.1786" height="128.536" fill="#FA5000"/>
<circle cx="948.572" cy="164.536" r="6.53571" fill="#504833"/>
<path d="M948.572 164.536H774.286" stroke="#504833" stroke-width="2.17857"/>
<circle cx="948.572" cy="308.321" r="6.53571" fill="#504833"/>
<path d="M948.572 308.321L804.786 308.321" stroke="#504833" stroke-width="2.17857"/>
<circle cx="948.572" cy="373.678" r="6.53571" fill="#504833"/>
<path d="M948.572 373.679L804.786 373.679" stroke="#504833" stroke-width="2.17857"/>
<circle cx="948.572" cy="436.857" r="6.53571" fill="#504833"/>
<path d="M948.572 436.857L804.786 436.857" stroke="#504833" stroke-width="2.17857"/>
<circle cx="948.572" cy="578.464" r="6.53571" fill="#504833"/>
<path d="M948.572 578.465H774.286" stroke="#504833" stroke-width="2.17857"/>
<path d="M232.7 38V24H238.28C239.72 24 240.873 24.3867 241.74 25.16C242.62 25.92 243.06 26.9867 243.06 28.36C243.06 29.4267 242.78 30.3067 242.22 31C241.66 31.6933 240.9 32.1667 239.94 32.42L242.96 38H240.34L237.5 32.62H235.06V38H232.7ZM235.06 30.58H238.1C239.82 30.58 240.68 29.84 240.68 28.36C240.68 26.88 239.82 26.14 238.1 26.14H235.06V30.58ZM245.294 38V27.4H247.574V38H245.294ZM245.254 25.66V23.4H247.614V25.66H245.254ZM249.805 34.46L251.885 33.96C252.072 35.5733 252.925 36.38 254.445 36.38C255.152 36.38 255.699 36.26 256.085 36.02C256.485 35.7667 256.685 35.4333 256.685 35.02C256.685 34.62 256.505 34.3267 256.145 34.14C255.785 33.9533 254.992 33.6867 253.765 33.34C252.525 32.9933 251.619 32.5867 251.045 32.12C250.485 31.64 250.205 31.0133 250.205 30.24C250.205 29.3867 250.552 28.6533 251.245 28.04C251.939 27.4133 252.892 27.1 254.105 27.1C256.439 27.1 257.885 28.1333 258.445 30.2L256.525 30.76C256.125 29.5867 255.319 29 254.105 29C253.532 29 253.085 29.1133 252.765 29.34C252.445 29.5667 252.285 29.8333 252.285 30.14C252.285 30.4867 252.459 30.7533 252.805 30.94C253.165 31.1133 254.032 31.3933 255.405 31.78C256.685 32.14 257.559 32.5733 258.025 33.08C258.505 33.5867 258.745 34.2467 258.745 35.06C258.745 35.9 258.385 36.6533 257.665 37.32C256.959 37.9733 255.912 38.3 254.525 38.3C253.072 38.3 251.959 37.9333 251.185 37.2C250.412 36.4533 249.952 35.54 249.805 34.46ZM260.978 38V27.4H263.258V38H260.978ZM260.938 25.66V23.4H263.298V25.66H260.938ZM266.289 38V27.4H268.489V28.42H268.529C268.822 28.0467 269.229 27.7333 269.749 27.48C270.269 27.2267 270.816 27.1 271.389 27.1C272.562 27.1 273.482 27.4533 274.149 28.16C274.829 28.8533 275.169 29.82 275.169 31.06V38H272.909V31.66C272.909 30.02 272.222 29.2 270.849 29.2C270.156 29.2 269.602 29.4 269.189 29.8C268.776 30.2 268.569 30.74 268.569 31.42V38H266.289ZM278.146 40.08L279.906 38.96C280.186 39.5733 280.526 40.0333 280.926 40.34C281.326 40.6467 281.86 40.8 282.526 40.8C283.26 40.8 283.84 40.6 284.266 40.2C284.693 39.8 284.906 39.1933 284.906 38.38V37.02H284.866C284.626 37.3667 284.266 37.6667 283.786 37.92C283.306 38.1733 282.753 38.3 282.126 38.3C280.753 38.3 279.613 37.8 278.706 36.8C277.813 35.8 277.366 34.4333 277.366 32.7C277.366 30.9933 277.826 29.6333 278.746 28.62C279.68 27.6067 280.793 27.1 282.086 27.1C283.326 27.1 284.28 27.54 284.946 28.42H284.986V27.4H287.186V38.06C287.186 39.5933 286.753 40.7667 285.886 41.58C285.033 42.3933 283.913 42.8 282.526 42.8C281.433 42.8 280.513 42.5467 279.766 42.04C279.02 41.5467 278.48 40.8933 278.146 40.08ZM284.906 34.02V31.46C284.906 30.8333 284.68 30.2933 284.226 29.84C283.786 29.3867 283.2 29.16 282.466 29.16C281.613 29.16 280.926 29.4667 280.406 30.08C279.9 30.6933 279.646 31.5667 279.646 32.7C279.646 33.8333 279.9 34.7067 280.406 35.32C280.913 35.9333 281.6 36.24 282.466 36.24C283.186 36.24 283.773 36.0267 284.226 35.6C284.68 35.16 284.906 34.6333 284.906 34.02ZM295.278 38V24H300.858C302.285 24 303.438 24.3933 304.318 25.18C305.198 25.9667 305.638 27.0467 305.638 28.42C305.638 29.78 305.211 30.8533 304.358 31.64C303.505 32.4133 302.345 32.8 300.878 32.8H297.638V38H295.278ZM297.638 30.62H300.818C301.511 30.62 302.085 30.4267 302.538 30.04C302.991 29.64 303.218 29.1 303.218 28.42C303.218 27.6467 302.985 27.08 302.518 26.72C302.051 26.36 301.478 26.18 300.798 26.18H297.638V30.62ZM307.344 38V27.4H309.504V28.52H309.544C309.757 28.12 310.064 27.8 310.464 27.56C310.864 27.32 311.29 27.2 311.744 27.2C312.05 27.2 312.364 27.2667 312.684 27.4L312.324 29.62C311.937 29.5133 311.657 29.46 311.484 29.46C310.244 29.46 309.624 30.34 309.624 32.1V38H307.344ZM314.63 38V27.4H316.91V38H314.63ZM314.59 25.66V23.4H316.95V25.66H314.59ZM326.381 33.78L328.641 34.26C328.428 35.54 327.941 36.5333 327.181 37.24C326.421 37.9467 325.415 38.3 324.161 38.3C322.721 38.3 321.541 37.8067 320.621 36.82C319.701 35.8333 319.241 34.46 319.241 32.7C319.241 31.0067 319.701 29.6533 320.621 28.64C321.555 27.6133 322.728 27.1 324.141 27.1C325.355 27.1 326.355 27.4667 327.141 28.2C327.928 28.92 328.388 29.86 328.521 31.02L326.381 31.38C326.155 29.9 325.415 29.16 324.161 29.16C323.348 29.16 322.701 29.4733 322.221 30.1C321.741 30.7133 321.501 31.58 321.501 32.7C321.501 33.82 321.735 34.6933 322.201 35.32C322.668 35.9333 323.321 36.24 324.161 36.24C325.401 36.24 326.141 35.42 326.381 33.78ZM337.88 34.48L339.52 35.82C338.493 37.4733 337.027 38.3 335.12 38.3C333.653 38.3 332.453 37.7933 331.52 36.78C330.6 35.7533 330.14 34.3933 330.14 32.7C330.14 31.0067 330.6 29.6533 331.52 28.64C332.44 27.6133 333.607 27.1 335.02 27.1C336.433 27.1 337.587 27.6067 338.48 28.62C339.387 29.6333 339.84 30.9933 339.84 32.7V33.38H332.44C332.467 34.26 332.707 34.9667 333.16 35.5C333.627 36.02 334.267 36.28 335.08 36.28C335.467 36.28 335.813 36.2267 336.12 36.12C336.427 36.0133 336.693 35.8533 336.92 35.64C337.16 35.4267 337.34 35.24 337.46 35.08C337.58 34.92 337.72 34.72 337.88 34.48ZM332.46 31.66H337.62C337.58 30.9133 337.34 30.3067 336.9 29.84C336.46 29.36 335.833 29.12 335.02 29.12C334.26 29.12 333.653 29.3733 333.2 29.88C332.747 30.3867 332.5 30.98 332.46 31.66ZM341.348 34.46L343.428 33.96C343.615 35.5733 344.468 36.38 345.988 36.38C346.695 36.38 347.242 36.26 347.628 36.02C348.028 35.7667 348.228 35.4333 348.228 35.02C348.228 34.62 348.048 34.3267 347.688 34.14C347.328 33.9533 346.535 33.6867 345.308 33.34C344.068 32.9933 343.162 32.5867 342.588 32.12C342.028 31.64 341.748 31.0133 341.748 30.24C341.748 29.3867 342.095 28.6533 342.788 28.04C343.482 27.4133 344.435 27.1 345.648 27.1C347.982 27.1 349.428 28.1333 349.988 30.2L348.068 30.76C347.668 29.5867 346.862 29 345.648 29C345.075 29 344.628 29.1133 344.308 29.34C343.988 29.5667 343.828 29.8333 343.828 30.14C343.828 30.4867 344.002 30.7533 344.348 30.94C344.708 31.1133 345.575 31.3933 346.948 31.78C348.228 32.14 349.102 32.5733 349.568 33.08C350.048 33.5867 350.288 34.2467 350.288 35.06C350.288 35.9 349.928 36.6533 349.208 37.32C348.502 37.9733 347.455 38.3 346.068 38.3C344.615 38.3 343.502 37.9333 342.728 37.2C341.955 36.4533 341.495 35.54 341.348 34.46Z" fill="black"/>
<path d="M806.7 38V24H815.44V26.18H809.06V30.32H814.86V32.4H809.06V38H806.7ZM823.42 38V36.94H823.38C823.327 37.02 823.247 37.12 823.14 37.24C823.033 37.3467 822.86 37.4933 822.62 37.68C822.393 37.8533 822.08 38 821.68 38.12C821.293 38.24 820.86 38.3 820.38 38.3C819.14 38.3 818.207 38.0067 817.58 37.42C816.953 36.82 816.64 36.08 816.64 35.2C816.64 34.2933 816.913 33.6 817.46 33.12C818.007 32.6267 818.933 32.22 820.24 31.9C821.413 31.6067 822.18 31.3667 822.54 31.18C822.9 30.98 823.08 30.6933 823.08 30.32C823.08 29.96 822.913 29.66 822.58 29.42C822.26 29.18 821.78 29.06 821.14 29.06C820.407 29.06 819.867 29.2267 819.52 29.56C819.187 29.8933 818.94 30.3467 818.78 30.92L816.84 30.18C817.067 29.2733 817.54 28.5333 818.26 27.96C818.98 27.3867 819.92 27.1 821.08 27.1C822.36 27.1 823.393 27.4267 824.18 28.08C824.967 28.7333 825.36 29.7533 825.36 31.14V38H823.42ZM820.7 33.52C819.953 33.7067 819.453 33.92 819.2 34.16C818.96 34.4 818.84 34.6933 818.84 35.04C818.84 35.8933 819.42 36.32 820.58 36.32C821.433 36.32 822.073 36.1467 822.5 35.8C822.94 35.4533 823.16 35.0333 823.16 34.54V32.42H823.12C823.067 32.5267 822.993 32.62 822.9 32.7C822.82 32.78 822.593 32.8933 822.22 33.04C821.86 33.1867 821.353 33.3467 820.7 33.52ZM828.16 38V23.4H830.52V38H828.16ZM833.512 38V23.4H835.872V38H833.512ZM838.903 38V27.4H841.183V38H838.903ZM838.863 25.66V23.4H841.223V25.66H838.863ZM844.215 38V27.4H846.415V28.42H846.455C846.748 28.0467 847.155 27.7333 847.675 27.48C848.195 27.2267 848.742 27.1 849.315 27.1C850.488 27.1 851.408 27.4533 852.075 28.16C852.755 28.8533 853.095 29.82 853.095 31.06V38H850.835V31.66C850.835 30.02 850.148 29.2 848.775 29.2C848.082 29.2 847.528 29.4 847.115 29.8C846.702 30.2 846.495 30.74 846.495 31.42V38H844.215ZM856.072 40.08L857.832 38.96C858.112 39.5733 858.452 40.0333 858.852 40.34C859.252 40.6467 859.786 40.8 860.452 40.8C861.186 40.8 861.766 40.6 862.192 40.2C862.619 39.8 862.832 39.1933 862.832 38.38V37.02H862.792C862.552 37.3667 862.192 37.6667 861.712 37.92C861.232 38.1733 860.679 38.3 860.052 38.3C858.679 38.3 857.539 37.8 856.632 36.8C855.739 35.8 855.292 34.4333 855.292 32.7C855.292 30.9933 855.752 29.6333 856.672 28.62C857.606 27.6067 858.719 27.1 860.012 27.1C861.252 27.1 862.206 27.54 862.872 28.42H862.912V27.4H865.112V38.06C865.112 39.5933 864.679 40.7667 863.812 41.58C862.959 42.3933 861.839 42.8 860.452 42.8C859.359 42.8 858.439 42.5467 857.692 42.04C856.946 41.5467 856.406 40.8933 856.072 40.08ZM862.832 34.02V31.46C862.832 30.8333 862.606 30.2933 862.152 29.84C861.712 29.3867 861.126 29.16 860.392 29.16C859.539 29.16 858.852 29.4667 858.332 30.08C857.826 30.6933 857.572 31.5667 857.572 32.7C857.572 33.8333 857.826 34.7067 858.332 35.32C858.839 35.9333 859.526 36.24 860.392 36.24C861.112 36.24 861.699 36.0267 862.152 35.6C862.606 35.16 862.832 34.6333 862.832 34.02ZM873.204 38V24H878.784C880.211 24 881.364 24.3933 882.244 25.18C883.124 25.9667 883.564 27.0467 883.564 28.42C883.564 29.78 883.137 30.8533 882.284 31.64C881.431 32.4133 880.271 32.8 878.804 32.8H875.564V38H873.204ZM875.564 30.62H878.744C879.437 30.62 880.011 30.4267 880.464 30.04C880.917 29.64 881.144 29.1 881.144 28.42C881.144 27.6467 880.911 27.08 880.444 26.72C879.977 26.36 879.404 26.18 878.724 26.18H875.564V30.62ZM885.27 38V27.4H887.43V28.52H887.47C887.683 28.12 887.99 27.8 888.39 27.56C888.79 27.32 889.216 27.2 889.67 27.2C889.976 27.2 890.29 27.2667 890.61 27.4L890.25 29.62C889.863 29.5133 889.583 29.46 889.41 29.46C888.17 29.46 887.55 30.34 887.55 32.1V38H885.27ZM892.556 38V27.4H894.836V38H892.556ZM892.516 25.66V23.4H894.876V25.66H892.516ZM904.307 33.78L906.567 34.26C906.354 35.54 905.867 36.5333 905.107 37.24C904.347 37.9467 903.341 38.3 902.087 38.3C900.647 38.3 899.467 37.8067 898.547 36.82C897.627 35.8333 897.167 34.46 897.167 32.7C897.167 31.0067 897.627 29.6533 898.547 28.64C899.481 27.6133 900.654 27.1 902.067 27.1C903.281 27.1 904.281 27.4667 905.067 28.2C905.854 28.92 906.314 29.86 906.447 31.02L904.307 31.38C904.081 29.9 903.341 29.16 902.087 29.16C901.274 29.16 900.627 29.4733 900.147 30.1C899.667 30.7133 899.427 31.58 899.427 32.7C899.427 33.82 899.661 34.6933 900.127 35.32C900.594 35.9333 901.247 36.24 902.087 36.24C903.327 36.24 904.067 35.42 904.307 33.78ZM915.806 34.48L917.446 35.82C916.419 37.4733 914.952 38.3 913.046 38.3C911.579 38.3 910.379 37.7933 909.446 36.78C908.526 35.7533 908.066 34.3933 908.066 32.7C908.066 31.0067 908.526 29.6533 909.446 28.64C910.366 27.6133 911.532 27.1 912.946 27.1C914.359 27.1 915.512 27.6067 916.406 28.62C917.312 29.6333 917.766 30.9933 917.766 32.7V33.38H910.366C910.392 34.26 910.632 34.9667 911.086 35.5C911.552 36.02 912.192 36.28 913.006 36.28C913.392 36.28 913.739 36.2267 914.046 36.12C914.352 36.0133 914.619 35.8533 914.846 35.64C915.086 35.4267 915.266 35.24 915.386 35.08C915.506 34.92 915.646 34.72 915.806 34.48ZM910.386 31.66H915.546C915.506 30.9133 915.266 30.3067 914.826 29.84C914.386 29.36 913.759 29.12 912.946 29.12C912.186 29.12 911.579 29.3733 911.126 29.88C910.672 30.3867 910.426 30.98 910.386 31.66ZM919.274 34.46L921.354 33.96C921.541 35.5733 922.394 36.38 923.914 36.38C924.621 36.38 925.168 36.26 925.554 36.02C925.954 35.7667 926.154 35.4333 926.154 35.02C926.154 34.62 925.974 34.3267 925.614 34.14C925.254 33.9533 924.461 33.6867 923.234 33.34C921.994 32.9933 921.088 32.5867 920.514 32.12C919.954 31.64 919.674 31.0133 919.674 30.24C919.674 29.3867 920.021 28.6533 920.714 28.04C921.408 27.4133 922.361 27.1 923.574 27.1C925.908 27.1 927.354 28.1333 927.914 30.2L925.994 30.76C925.594 29.5867 924.788 29 923.574 29C923.001 29 922.554 29.1133 922.234 29.34C921.914 29.5667 921.754 29.8333 921.754 30.14C921.754 30.4867 921.928 30.7533 922.274 30.94C922.634 31.1133 923.501 31.3933 924.874 31.78C926.154 32.14 927.028 32.5733 927.494 33.08C927.974 33.5867 928.214 34.2467 928.214 35.06C928.214 35.9 927.854 36.6533 927.134 37.32C926.428 37.9733 925.381 38.3 923.994 38.3C922.541 38.3 921.428 37.9333 920.654 37.2C919.881 36.4533 919.421 35.54 919.274 34.46Z" fill="black"/>
</svg>
